<svg version="1.1" id="Layer_1" xmlns="http://www.w3.org/2000/svg" xmlns:xlink="http://www.w3.org/1999/xlink" x="0px" y="0px"
	 width="100%" viewBox="0 0 1024 736" enable-background="new 0 0 1024 736" xml:space="preserve">
<path fill="#4f8ef7" opacity="1.000000" stroke="none" 
	d="
M628.000000,167.728531 
	C639.666504,167.735657 650.833618,167.672424 661.999390,167.769608 
	C677.642822,167.905777 686.332214,176.719315 686.333557,192.397263 
	C686.343811,309.895508 686.346497,427.393768 686.330139,544.892029 
	C686.327698,562.773865 677.788147,571.314758 660.081604,571.312805 
	C642.081848,571.310791 624.081970,571.347595 606.082397,571.295898 
	C592.710693,571.257507 582.782166,561.834900 582.721130,548.533813 
	C582.546753,510.536865 582.635803,472.538727 582.603821,434.541077 
	C582.601929,432.288544 582.873047,430.573181 585.277283,429.238770 
	C604.892029,418.351776 609.673584,405.542114 602.284546,384.374115 
	C602.073425,383.769165 602.034729,383.104034 601.918518,382.482697 
	C603.928162,380.468506 606.382080,381.083832 608.625061,381.076904 
	C623.124634,381.032196 637.624512,381.102936 652.124084,381.065216 
	C657.744629,381.050598 659.710510,379.400391 659.723145,374.186127 
	C659.799377,342.859131 659.760986,311.531860 659.114807,279.971924 
	C658.182434,282.355316 657.214539,284.725464 656.323303,287.124115 
	C648.370667,308.528748 631.066833,320.646576 608.275024,321.322174 
	C592.954895,321.776306 578.143433,318.939453 563.313232,315.731110 
	C552.754700,313.446899 542.256897,310.765930 531.373108,310.272491 
	C522.437927,309.867401 514.657043,312.591278 507.889404,318.345062 
	C497.087097,327.529022 487.157288,337.635590 477.071808,347.576172 
	C476.377899,348.260101 475.630646,348.997894 475.711243,350.131104 
	C480.139557,353.818573 486.512238,353.701996 492.649414,349.790710 
	C498.322845,346.174835 502.796875,341.178528 507.707458,336.682098 
	C510.037445,334.548676 512.339783,332.327942 514.929077,330.545410 
	C523.162964,324.877045 532.501038,324.910492 540.529114,330.834351 
	C549.567200,337.503510 556.455078,346.439178 564.433044,354.231445 
	C572.775635,362.380066 580.949219,370.701477 589.236328,378.907288 
	C596.655334,386.253479 601.054138,394.697906 598.273315,405.397186 
	C595.568298,415.804688 588.903259,422.472992 578.279846,424.803253 
	C575.697266,425.369690 574.286987,426.689484 573.396545,429.128418 
	C570.446838,437.207336 564.565002,441.891266 556.104431,443.132874 
	C553.775269,443.474701 552.740906,444.510559 551.870056,446.597076 
	C548.492920,454.688568 542.356567,459.414978 533.561951,459.914886 
	C529.998474,460.117401 528.417480,461.777405 526.726135,464.568512 
	C522.255981,471.945343 516.702332,477.785034 506.940033,477.456879 
	C498.135559,477.160889 492.054199,473.251129 489.330139,464.733185 
	C488.390503,461.795135 487.004608,460.520050 484.026062,459.825562 
	C476.480804,458.066254 471.010498,453.861786 469.909821,445.605591 
	C469.623627,443.458740 468.725800,442.401245 466.565674,442.003235 
	C459.237122,440.652954 454.016968,437.024200 452.528259,429.119568 
	C451.966583,426.136963 449.119659,424.444641 446.567596,424.733032 
	C443.477631,425.082184 444.375671,428.390015 444.372955,430.554840 
	C444.324463,469.054077 444.345825,507.553467 444.349945,546.052795 
	C444.351746,562.510681 435.589386,571.288513 419.083405,571.308411 
	C401.083679,571.330139 383.083832,571.331299 365.084106,571.302002 
	C350.402649,571.278137 340.696960,561.614563 340.693451,546.791992 
	C340.665497,428.293915 340.670135,309.795807 340.702637,191.297729 
	C340.706451,177.324234 349.803284,167.970123 363.778687,167.828369 
	C383.109802,167.632278 402.445221,167.647476 421.776978,167.801178 
	C435.262329,167.908401 444.283600,177.067123 444.321960,190.601120 
	C444.410248,221.767075 444.341431,252.933441 444.352814,284.099640 
	C444.355194,290.646271 444.387726,290.670074 451.092529,290.675659 
	C465.592316,290.687775 480.092194,290.654266 494.591858,290.693268 
	C496.362335,290.698029 498.233246,290.196442 499.885468,291.242981 
	C500.218719,292.323517 499.549713,292.865143 498.857819,293.313660 
	C488.844330,299.804688 480.653015,308.386261 472.281647,316.724609 
	C469.122772,319.871002 465.913940,321.401398 461.319794,321.370087 
	C433.321533,321.179138 405.321228,321.271851 377.321625,321.292114 
	C369.255493,321.297943 367.272858,323.254456 367.258087,331.306122 
	C367.208832,358.138855 367.190002,384.971680 367.193909,411.804474 
	C367.194122,413.413086 366.808990,415.121307 368.066956,416.981232 
	C370.238617,415.328979 370.618835,412.793243 371.545685,410.655548 
	C380.280518,390.509033 395.927795,380.196960 417.233490,380.593475 
	C429.643097,380.824402 439.067413,387.072754 447.063721,395.791443 
	C450.028412,399.024017 452.240143,401.282227 456.975952,398.404144 
	C460.369720,396.341644 464.233948,397.609558 466.803833,400.842651 
	C469.422974,404.137665 468.107941,407.025177 465.362457,409.614594 
	C464.653992,410.282745 464.085419,411.172150 463.669861,412.061493 
	C462.984802,413.527771 462.961212,415.030151 464.436432,416.086029 
	C465.799408,417.061523 467.096283,416.365906 468.031036,415.409332 
	C470.121857,413.269745 472.083130,411.000397 474.043274,408.737213 
	C476.240173,406.200653 478.450989,403.681152 481.841766,402.737274 
	C486.245026,401.511566 490.225159,402.298309 493.069153,406.022430 
	C495.851349,409.665649 496.289703,413.844421 493.612885,417.671265 
	C491.141785,421.204071 488.063782,424.307465 485.337738,427.668701 
	C483.729645,429.651581 482.003967,431.989349 484.470520,434.258453 
	C487.132141,436.707031 489.099030,434.197418 490.762115,432.474152 
	C493.651154,429.480530 496.224884,426.184143 499.085968,423.161591 
	C504.076385,417.889618 510.775818,417.069611 515.015076,421.064880 
	C519.500793,425.292450 519.338257,431.488159 514.370972,437.155090 
	C511.518280,440.409576 508.343445,443.379486 505.395142,446.553192 
	C503.122803,448.999237 501.988220,451.871948 504.886078,454.430756 
	C507.757599,456.966309 509.756042,454.248413 511.629120,452.472076 
	C515.279236,449.010590 518.298950,445.016907 520.762573,440.641022 
	C522.377686,437.772247 524.306030,437.423157 526.842529,439.367554 
	C529.650635,441.520081 532.689270,443.381073 535.523376,439.736267 
	C538.146057,436.363434 536.098633,433.322083 533.768982,430.831512 
	C529.103577,425.843994 524.196960,421.082855 519.440796,416.178955 
	C517.942139,414.633820 516.309143,413.101654 515.255188,411.266357 
	C512.888733,407.145569 513.832642,402.650513 517.259338,400.063049 
	C520.829529,397.367310 524.952148,397.731903 528.517761,401.291229 
	C535.474976,408.236206 542.313721,415.299805 549.267822,422.247955 
	C551.391785,424.370087 553.926208,425.957916 556.699951,423.405548 
	C559.487000,420.840942 559.389893,417.825043 557.080383,414.931427 
	C555.940552,413.503296 554.648132,412.188019 553.350098,410.896667 
	C548.151917,405.725433 542.902039,400.606110 537.721863,395.417084 
	C536.196228,393.888885 534.680298,392.305939 533.433838,390.553284 
	C530.582458,386.544128 531.122681,381.370575 534.531250,378.305084 
	C538.254883,374.956238 542.534058,374.969116 546.559875,378.887787 
	C554.320679,386.442200 561.902405,394.182007 569.491455,401.910736 
	C572.246155,404.716125 575.032043,407.112549 578.911499,403.964447 
	C581.733704,401.674286 581.362427,397.653748 577.663940,393.907104 
	C562.681580,378.729431 547.634399,363.614471 532.482605,348.606171 
	C528.236084,344.399902 526.426514,344.579895 521.948547,348.846710 
	C515.919617,354.591339 510.200775,360.675964 503.332275,365.477936 
	C490.831726,374.217468 477.886414,374.619873 464.827301,367.040924 
	C452.938751,360.141327 450.533173,347.220123 460.249054,337.614716 
	C472.674561,325.330444 484.692139,312.544189 498.289978,301.501404 
	C507.217865,294.251038 517.553528,290.536774 529.236084,290.650818 
	C544.567688,290.800446 559.901917,290.693909 575.235046,290.667358 
	C581.320679,290.656830 582.553284,289.772125 582.573486,283.942505 
	C582.652771,261.111511 582.496399,238.279770 582.489075,215.448288 
	C582.486084,206.124100 582.325562,196.783691 582.804565,187.479904 
	C583.354919,176.789963 593.438843,168.037094 605.009644,167.781708 
	C612.503174,167.616302 620.002991,167.737152 628.000000,167.728531 
z"/>
</svg>